<?xml version="1.0" encoding="UTF-8"?>
<svg version="1.1" xmlns="http://www.w3.org/2000/svg" width="512" height="512">
<path d="M0 0 C3.42889077 0.01072442 6.85725781 0.00004415 10.28613281 -0.01269531 C22.48024181 -0.01929814 34.37241153 0.41697906 46.43457031 2.26074219 C46.43457031 2.92074219 46.43457031 3.58074219 46.43457031 4.26074219 C48.74457031 4.26074219 51.05457031 4.26074219 53.43457031 4.26074219 C53.43457031 4.92074219 53.43457031 5.58074219 53.43457031 6.26074219 C54.51738281 6.19886719 54.51738281 6.19886719 55.62207031 6.13574219 C58.68123829 6.27170521 60.63468288 7.07079003 63.43457031 8.26074219 C65.09376927 8.62945307 66.75933461 8.97355892 68.43457031 9.26074219 C68.43457031 9.92074219 68.43457031 10.58074219 68.43457031 11.26074219 C69.75457031 11.26074219 71.07457031 11.26074219 72.43457031 11.26074219 C72.43457031 11.92074219 72.43457031 12.58074219 72.43457031 13.26074219 C73.13582031 13.38449219 73.83707031 13.50824219 74.55957031 13.63574219 C77.61113419 14.29912564 80.48797969 15.23286174 83.43457031 16.26074219 C83.43457031 16.92074219 83.43457031 17.58074219 83.43457031 18.26074219 C84.42457031 18.26074219 85.41457031 18.26074219 86.43457031 18.26074219 C86.43457031 18.92074219 86.43457031 19.58074219 86.43457031 20.26074219 C86.95019531 20.34324219 87.46582031 20.42574219 87.99707031 20.51074219 C91.47912763 21.58214444 94.30657916 23.39597823 97.43457031 25.26074219 C97.43457031 25.92074219 97.43457031 26.58074219 97.43457031 27.26074219 C98.42457031 27.26074219 99.41457031 27.26074219 100.43457031 27.26074219 C100.43457031 27.92074219 100.43457031 28.58074219 100.43457031 29.26074219 C101.05332031 29.57011719 101.67207031 29.87949219 102.30957031 30.19824219 C103.68457031 30.88574219 105.05957031 31.57324219 106.43457031 32.26074219 C106.43457031 32.92074219 106.43457031 33.58074219 106.43457031 34.26074219 C107.42457031 34.26074219 108.41457031 34.26074219 109.43457031 34.26074219 C109.43457031 34.92074219 109.43457031 35.58074219 109.43457031 36.26074219 C110.09457031 36.26074219 110.75457031 36.26074219 111.43457031 36.26074219 C111.43457031 36.92074219 111.43457031 37.58074219 111.43457031 38.26074219 C112.42457031 38.59074219 113.41457031 38.92074219 114.43457031 39.26074219 C114.43457031 39.92074219 114.43457031 40.58074219 114.43457031 41.26074219 C115.09457031 41.26074219 115.75457031 41.26074219 116.43457031 41.26074219 C116.43457031 41.92074219 116.43457031 42.58074219 116.43457031 43.26074219 C117.09457031 43.26074219 117.75457031 43.26074219 118.43457031 43.26074219 C118.43457031 43.92074219 118.43457031 44.58074219 118.43457031 45.26074219 C119.42457031 45.59074219 120.41457031 45.92074219 121.43457031 46.26074219 C121.43457031 46.92074219 121.43457031 47.58074219 121.43457031 48.26074219 C122.09457031 48.26074219 122.75457031 48.26074219 123.43457031 48.26074219 C123.68207031 48.83824219 123.92957031 49.41574219 124.18457031 50.01074219 C125.36643151 52.39341105 125.36643151 52.39341105 127.55957031 54.32324219 C129.43457031 56.26074219 129.43457031 56.26074219 129.43457031 59.26074219 C130.09457031 59.26074219 130.75457031 59.26074219 131.43457031 59.26074219 C134.43457031 63.64535757 134.43457031 63.64535757 134.43457031 66.26074219 C135.09457031 66.26074219 135.75457031 66.26074219 136.43457031 66.26074219 C137.60864052 68.52801552 138.7739677 70.79908843 139.93457031 73.07324219 C140.43537109 74.03713867 140.43537109 74.03713867 140.94628906 75.02050781 C142.43696116 77.95621918 143.43457031 79.92200736 143.43457031 83.26074219 C144.09457031 83.26074219 144.75457031 83.26074219 145.43457031 83.26074219 C145.64210938 84.17597656 145.84964844 85.09121094 146.06347656 86.03417969 C146.3715625 87.22269531 146.67964844 88.41121094 146.99707031 89.63574219 C147.28710938 90.81910156 147.57714844 92.00246094 147.87597656 93.22167969 C149.15927235 96.46213663 149.15927235 96.46213663 152.18457031 97.63574219 C158.29410204 98.85206905 164.66775327 98.73541043 170.87207031 98.88574219 C172.17595703 98.92441406 173.47984375 98.96308594 174.82324219 99.00292969 C178.0268803 99.09680919 181.23051863 99.18249373 184.43457031 99.26074219 C184.43457031 99.92074219 184.43457031 100.58074219 184.43457031 101.26074219 C185.24200684 101.25550537 186.04944336 101.25026855 186.88134766 101.24487305 C190.52408069 101.2241429 194.16680133 101.2110947 197.80957031 101.19824219 C199.08058594 101.18986328 200.35160156 101.18148437 201.66113281 101.17285156 C202.87285156 101.16962891 204.08457031 101.16640625 205.33300781 101.16308594 C206.45368652 101.15784912 207.57436523 101.1526123 208.72900391 101.1472168 C211.43457031 101.26074219 211.43457031 101.26074219 213.43457031 102.26074219 C215.3954939 102.39114031 217.36042083 102.463405 219.32519531 102.50683594 C220.50984375 102.53970703 221.69449219 102.57257813 222.91503906 102.60644531 C225.41235157 102.66726069 227.90975142 102.72459708 230.40722656 102.77832031 C231.59703125 102.81248047 232.78683594 102.84664063 234.01269531 102.88183594 C235.64319824 102.91942017 235.64319824 102.91942017 237.30664062 102.95776367 C240.60121157 103.27688345 243.3445412 104.09980397 246.43457031 105.26074219 C246.43457031 106.25074219 246.43457031 107.24074219 246.43457031 108.26074219 C245.34926025 108.28579834 244.2639502 108.31085449 243.14575195 108.33666992 C239.13325432 108.43057974 235.12093649 108.53083985 231.10864258 108.63305664 C229.36942744 108.67646792 227.63016796 108.71813831 225.89086914 108.75805664 C223.39618543 108.81560987 220.90172621 108.87934638 218.40722656 108.94433594 C217.62493179 108.96104843 216.84263702 108.97776093 216.03663635 108.99497986 C212.4358525 108.7672295 212.4358525 108.7672295 209.43457031 110.26074219 C206.34538765 110.40879096 203.27577888 110.49589762 200.18457031 110.54199219 C199.25612305 110.56040161 198.32767578 110.57881104 197.37109375 110.59777832 C193.38065534 110.67674876 189.39004047 110.74429507 185.39941406 110.81298828 C182.49437789 110.86459339 179.58949278 110.92189285 176.68457031 110.97949219 C175.77416992 110.99306763 174.86376953 111.00664307 173.92578125 111.02062988 C169.85522046 110.69366541 169.85522046 110.69366541 166.43457031 112.26074219 C163.69562946 112.34932864 160.98203761 112.37597698 158.24316406 112.35839844 C157.42332535 112.35698349 156.60348663 112.35556854 155.75880432 112.35411072 C153.12985649 112.34849508 150.50099258 112.33593998 147.87207031 112.32324219 C146.09407675 112.3182292 144.31608185 112.31366594 142.53808594 112.30957031 C138.17021486 112.29852057 133.80240683 112.2812455 129.43457031 112.26074219 C129.43457031 110.94074219 129.43457031 109.62074219 129.43457031 108.26074219 C128.77457031 108.26074219 128.11457031 108.26074219 127.43457031 108.26074219 C126.78624141 106.03230005 126.14100662 103.80295759 125.49707031 101.57324219 C125.13742187 100.331875 124.77777344 99.09050781 124.40722656 97.81152344 C123.627306 94.96434357 122.96169815 92.16271965 122.43457031 89.26074219 C121.77457031 89.26074219 121.11457031 89.26074219 120.43457031 89.26074219 C120.43457031 87.94074219 120.43457031 86.62074219 120.43457031 85.26074219 C119.77457031 85.26074219 119.11457031 85.26074219 118.43457031 85.26074219 C118.10457031 83.61074219 117.77457031 81.96074219 117.43457031 80.26074219 C116.77457031 80.26074219 116.11457031 80.26074219 115.43457031 80.26074219 C115.43457031 78.94074219 115.43457031 77.62074219 115.43457031 76.26074219 C114.77457031 76.26074219 114.11457031 76.26074219 113.43457031 76.26074219 C110.43457031 71.8761268 110.43457031 71.8761268 110.43457031 69.26074219 C109.77457031 69.26074219 109.11457031 69.26074219 108.43457031 69.26074219 C107.77457031 67.61074219 107.11457031 65.96074219 106.43457031 64.26074219 C105.77457031 64.26074219 105.11457031 64.26074219 104.43457031 64.26074219 C101.80957031 61.88574219 101.80957031 61.88574219 99.43457031 59.26074219 C99.43457031 58.60074219 99.43457031 57.94074219 99.43457031 57.26074219 C98.77457031 57.26074219 98.11457031 57.26074219 97.43457031 57.26074219 C94.80957031 54.88574219 94.80957031 54.88574219 92.43457031 52.26074219 C92.43457031 51.60074219 92.43457031 50.94074219 92.43457031 50.26074219 C91.44457031 50.26074219 90.45457031 50.26074219 89.43457031 50.26074219 C89.43457031 49.60074219 89.43457031 48.94074219 89.43457031 48.26074219 C88.77457031 48.26074219 88.11457031 48.26074219 87.43457031 48.26074219 C87.43457031 47.60074219 87.43457031 46.94074219 87.43457031 46.26074219 C85.78457031 45.93074219 84.13457031 45.60074219 82.43457031 45.26074219 C82.43457031 44.60074219 82.43457031 43.94074219 82.43457031 43.26074219 C81.44457031 43.26074219 80.45457031 43.26074219 79.43457031 43.26074219 C79.43457031 42.60074219 79.43457031 41.94074219 79.43457031 41.26074219 C78.75394531 40.99261719 78.07332031 40.72449219 77.37207031 40.44824219 C74.03746222 39.10020913 70.73713794 37.6853792 67.43457031 36.26074219 C67.43457031 35.60074219 67.43457031 34.94074219 67.43457031 34.26074219 C66.77457031 34.15761719 66.11457031 34.05449219 65.43457031 33.94824219 C62.95726339 33.38052602 60.84701079 32.68538287 58.49707031 31.76074219 C55.16576026 30.46488154 51.99613991 29.70593839 48.43457031 29.26074219 C48.43457031 28.60074219 48.43457031 27.94074219 48.43457031 27.26074219 C46.45457031 27.26074219 44.47457031 27.26074219 42.43457031 27.26074219 C42.43457031 26.60074219 42.43457031 25.94074219 42.43457031 25.26074219 C41.13519531 25.28136719 39.83582031 25.30199219 38.49707031 25.32324219 C37.14291398 25.34473673 35.78700948 25.33222417 34.43457031 25.26074219 C34.10457031 24.93074219 33.77457031 24.60074219 33.43457031 24.26074219 C24.49560799 22.9694577 15.52336859 23.10853748 6.51196289 23.13037109 C3.87477895 23.13573668 1.23776475 23.13039758 -1.39941406 23.12402344 C-3.10188839 23.12468422 -4.80436261 23.12596537 -6.50683594 23.12792969 C-7.66971886 23.12489334 -7.66971886 23.12489334 -8.85609436 23.12179565 C-17.96745698 22.91202422 -17.96745698 22.91202422 -26.56542969 25.26074219 C-28.89841629 25.30096609 -31.23249634 25.30394466 -33.56542969 25.26074219 C-33.56542969 25.92074219 -33.56542969 26.58074219 -33.56542969 27.26074219 C-35.54542969 27.26074219 -37.52542969 27.26074219 -39.56542969 27.26074219 C-39.56542969 27.92074219 -39.56542969 28.58074219 -39.56542969 29.26074219 C-48.97545247 31.3723595 -48.97545247 31.3723595 -53.56542969 32.26074219 C-53.56542969 32.92074219 -53.56542969 33.58074219 -53.56542969 34.26074219 C-54.88542969 34.26074219 -56.20542969 34.26074219 -57.56542969 34.26074219 C-57.56542969 34.92074219 -57.56542969 35.58074219 -57.56542969 36.26074219 C-58.88542969 36.26074219 -60.20542969 36.26074219 -61.56542969 36.26074219 C-61.56542969 36.92074219 -61.56542969 37.58074219 -61.56542969 38.26074219 C-64.53542969 38.75574219 -64.53542969 38.75574219 -67.56542969 39.26074219 C-67.56542969 39.92074219 -67.56542969 40.58074219 -67.56542969 41.26074219 C-68.55542969 41.26074219 -69.54542969 41.26074219 -70.56542969 41.26074219 C-70.56542969 41.92074219 -70.56542969 42.58074219 -70.56542969 43.26074219 C-71.55542969 43.26074219 -72.54542969 43.26074219 -73.56542969 43.26074219 C-73.56542969 43.92074219 -73.56542969 44.58074219 -73.56542969 45.26074219 C-77.95004507 48.26074219 -77.95004507 48.26074219 -80.56542969 48.26074219 C-80.56542969 48.92074219 -80.56542969 49.58074219 -80.56542969 50.26074219 C-81.22542969 50.26074219 -81.88542969 50.26074219 -82.56542969 50.26074219 C-82.56542969 50.92074219 -82.56542969 51.58074219 -82.56542969 52.26074219 C-84.26719778 53.49535826 -85.9727831 54.72524505 -87.70214844 55.92089844 C-92.79527377 59.58325062 -96.33629598 64.46815025 -100.01464844 69.46777344 C-100.52640625 70.05945313 -101.03816406 70.65113281 -101.56542969 71.26074219 C-102.22542969 71.26074219 -102.88542969 71.26074219 -103.56542969 71.26074219 C-103.83484375 71.99292969 -104.10425781 72.72511719 -104.38183594 73.47949219 C-105.52928828 76.17581584 -106.83958177 78.35671772 -108.50292969 80.76074219 C-109.03144531 81.53804688 -109.55996094 82.31535156 -110.10449219 83.11621094 C-110.58660156 83.82390625 -111.06871094 84.53160156 -111.56542969 85.26074219 C-113.51159596 88.28065537 -114.90950184 90.71873181 -115.56542969 94.26074219 C-116.22542969 94.26074219 -116.88542969 94.26074219 -117.56542969 94.26074219 C-117.56542969 95.91074219 -117.56542969 97.56074219 -117.56542969 99.26074219 C-118.22542969 99.26074219 -118.88542969 99.26074219 -119.56542969 99.26074219 C-119.89542969 101.24074219 -120.22542969 103.22074219 -120.56542969 105.26074219 C-119.90542969 105.59074219 -119.24542969 105.92074219 -118.56542969 106.26074219 C-118.56542969 106.92074219 -118.56542969 107.58074219 -118.56542969 108.26074219 C-117.90542969 108.26074219 -117.24542969 108.26074219 -116.56542969 108.26074219 C-116.56542969 108.92074219 -116.56542969 109.58074219 -116.56542969 110.26074219 C-115.90542969 110.26074219 -115.24542969 110.26074219 -114.56542969 110.26074219 C-114.56542969 110.92074219 -114.56542969 111.58074219 -114.56542969 112.26074219 C-113.90542969 112.26074219 -113.24542969 112.26074219 -112.56542969 112.26074219 C-111.90542969 113.91074219 -111.24542969 115.56074219 -110.56542969 117.26074219 C-109.90542969 117.26074219 -109.24542969 117.26074219 -108.56542969 117.26074219 C-108.56542969 118.58074219 -108.56542969 119.90074219 -108.56542969 121.26074219 C-107.90542969 121.26074219 -107.24542969 121.26074219 -106.56542969 121.26074219 C-106.07042969 127.69574219 -106.07042969 127.69574219 -105.56542969 134.26074219 C-106.55542969 133.93074219 -107.54542969 133.60074219 -108.56542969 133.26074219 C-108.56542969 132.60074219 -108.56542969 131.94074219 -108.56542969 131.26074219 C-109.22542969 131.26074219 -109.88542969 131.26074219 -110.56542969 131.26074219 C-111.03980469 130.62136719 -111.51417969 129.98199219 -112.00292969 129.32324219 C-113.47456619 126.97701255 -113.47456619 126.97701255 -116.56542969 126.26074219 C-116.56542969 125.60074219 -116.56542969 124.94074219 -116.56542969 124.26074219 C-117.20351562 124.12796875 -117.84160156 123.99519531 -118.49902344 123.85839844 C-119.73845703 123.59349609 -119.73845703 123.59349609 -121.00292969 123.32324219 C-122.23849609 123.06220703 -122.23849609 123.06220703 -123.49902344 122.79589844 C-125.56542969 122.26074219 -125.56542969 122.26074219 -126.56542969 121.26074219 C-128.73023765 121.16181279 -130.89836754 121.13103118 -133.06542969 121.13574219 C-134.25136719 121.13316406 -135.43730469 121.13058594 -136.65917969 121.12792969 C-139.45802391 120.92863999 -139.45802391 120.92863999 -140.56542969 122.26074219 C-142.89876302 122.59407552 -145.23209635 122.92740885 -147.56542969 123.26074219 C-147.89542969 123.59074219 -148.22542969 123.92074219 -148.56542969 124.26074219 C-150.23160084 124.30138051 -151.89931064 124.30346319 -153.56542969 124.26074219 C-153.56542969 124.92074219 -153.56542969 125.58074219 -153.56542969 126.26074219 C-155.16799077 126.76586463 -156.77254761 127.26465845 -158.37792969 127.76074219 C-159.71791016 128.17839844 -159.71791016 128.17839844 -161.08496094 128.60449219 C-163.56542969 129.26074219 -163.56542969 129.26074219 -166.56542969 129.26074219 C-166.56542969 129.92074219 -166.56542969 130.58074219 -166.56542969 131.26074219 C-168.33458444 132.24293846 -170.10581537 133.22139578 -171.87792969 134.19824219 C-172.8640625 134.74351562 -173.85019531 135.28878906 -174.86621094 135.85058594 C-177.56542969 137.26074219 -177.56542969 137.26074219 -180.56542969 138.26074219 C-180.56542969 138.92074219 -180.56542969 139.58074219 -180.56542969 140.26074219 C-181.22542969 140.26074219 -181.88542969 140.26074219 -182.56542969 140.26074219 C-182.56542969 140.92074219 -182.56542969 141.58074219 -182.56542969 142.26074219 C-183.88542969 142.59074219 -185.20542969 142.92074219 -186.56542969 143.26074219 C-186.56542969 143.92074219 -186.56542969 144.58074219 -186.56542969 145.26074219 C-187.22542969 145.26074219 -187.88542969 145.26074219 -188.56542969 145.26074219 C-188.89542969 146.58074219 -189.22542969 147.90074219 -189.56542969 149.26074219 C-190.22542969 149.26074219 -190.88542969 149.26074219 -191.56542969 149.26074219 C-191.56542969 150.25074219 -191.56542969 151.24074219 -191.56542969 152.26074219 C-192.22542969 152.26074219 -192.88542969 152.26074219 -193.56542969 152.26074219 C-193.83355469 152.94136719 -194.10167969 153.62199219 -194.37792969 154.32324219 C-195.72596275 157.65785028 -197.14079267 160.95817456 -198.56542969 164.26074219 C-199.22542969 164.26074219 -199.88542969 164.26074219 -200.56542969 164.26074219 C-201.33945878 168.01931589 -202.00382461 171.7870047 -202.62792969 175.57324219 C-202.89283203 177.17619141 -202.89283203 177.17619141 -203.16308594 178.81152344 C-203.29585937 179.61976563 -203.42863281 180.42800781 -203.56542969 181.26074219 C-204.22542969 181.26074219 -204.88542969 181.26074219 -205.56542969 181.26074219 C-205.56542969 189.84074219 -205.56542969 198.42074219 -205.56542969 207.26074219 C-204.90542969 207.26074219 -204.24542969 207.26074219 -203.56542969 207.26074219 C-203.45585937 207.91300781 -203.34628906 208.56527344 -203.23339844 209.23730469 C-202.29261871 214.42306613 -201.07704716 218.58000054 -198.56542969 223.26074219 C-198.56542969 224.25074219 -198.56542969 225.24074219 -198.56542969 226.26074219 C-197.90542969 226.26074219 -197.24542969 226.26074219 -196.56542969 226.26074219 C-196.11167969 227.20949219 -195.65792969 228.15824219 -195.19042969 229.13574219 C-193.76304715 232.26387897 -193.76304715 232.26387897 -191.56542969 234.26074219 C-191.56542969 235.25074219 -191.56542969 236.24074219 -191.56542969 237.26074219 C-190.90542969 237.26074219 -190.24542969 237.26074219 -189.56542969 237.26074219 C-187.94042969 238.63574219 -187.94042969 238.63574219 -186.56542969 240.26074219 C-186.56542969 240.92074219 -186.56542969 241.58074219 -186.56542969 242.26074219 C-185.90542969 242.26074219 -185.24542969 242.26074219 -184.56542969 242.26074219 C-181.94042969 244.63574219 -181.94042969 244.63574219 -179.56542969 247.26074219 C-179.56542969 247.92074219 -179.56542969 248.58074219 -179.56542969 249.26074219 C-178.90542969 249.26074219 -178.24542969 249.26074219 -177.56542969 249.26074219 C-177.56542969 249.92074219 -177.56542969 250.58074219 -177.56542969 251.26074219 C-176.57542969 251.26074219 -175.58542969 251.26074219 -174.56542969 251.26074219 C-174.56542969 251.92074219 -174.56542969 252.58074219 -174.56542969 253.26074219 C-172.91542969 253.59074219 -171.26542969 253.92074219 -169.56542969 254.26074219 C-169.56542969 254.92074219 -169.56542969 255.58074219 -169.56542969 256.26074219 C-168.57542969 256.26074219 -167.58542969 256.26074219 -166.56542969 256.26074219 C-166.56542969 256.92074219 -166.56542969 257.58074219 -166.56542969 258.26074219 C-165.57542969 258.26074219 -164.58542969 258.26074219 -163.56542969 258.26074219 C-163.56542969 258.92074219 -163.56542969 259.58074219 -163.56542969 260.26074219 C-162.88480469 260.38449219 -162.20417969 260.50824219 -161.50292969 260.63574219 C-158.13768849 261.35175095 -154.86529544 262.29019344 -151.56542969 263.26074219 C-151.56542969 263.92074219 -151.56542969 264.58074219 -151.56542969 265.26074219 C-150.57542969 265.16792969 -150.57542969 265.16792969 -149.56542969 265.07324219 C-146.22993227 265.28171078 -143.86195452 266.19090821 -140.82324219 267.50683594 C-133.44042059 269.97203415 -125.31811532 269.57725303 -117.62792969 269.82324219 C-116.37173828 269.86642578 -115.11554688 269.90960938 -113.82128906 269.95410156 C-110.73610001 270.05967837 -107.65083706 270.1617877 -104.56542969 270.26074219 C-104.56542969 270.92074219 -104.56542969 271.58074219 -104.56542969 272.26074219 C-103.5104126 272.25550537 -102.45539551 272.25026855 -101.3684082 272.24487305 C-97.46786339 272.22682318 -93.56732229 272.21531024 -89.66674805 272.20581055 C-87.97598653 272.20077029 -86.2852294 272.19393814 -84.59448242 272.18530273 C-82.16942262 272.17322362 -79.74442025 272.16751096 -77.31933594 272.16308594 C-76.17870445 272.15534401 -76.17870445 272.15534401 -75.01502991 272.14744568 C-73.19810398 272.14724981 -71.38129841 272.19876942 -69.56542969 272.26074219 C-69.23542969 272.59074219 -68.90542969 272.92074219 -68.56542969 273.26074219 C-66.17767697 273.40840684 -63.81512698 273.49570086 -61.42480469 273.54199219 C-60.34601044 273.56960632 -60.34601044 273.56960632 -59.24542236 273.59777832 C-56.93551035 273.65669412 -54.62552137 273.70938548 -52.31542969 273.76074219 C-49.28924047 273.82863949 -46.26327308 273.90244577 -43.23730469 273.97949219 C-42.54441345 273.99306763 -41.85152222 274.00664307 -41.13763428 274.02062988 C-38.45246039 274.08894654 -35.88740446 274.19197899 -33.25575256 274.75401306 C-30.12228433 275.34420974 -27.1269684 275.46643419 -23.93920898 275.55786133 C-23.29474319 275.5775145 -22.6502774 275.59716766 -21.98628235 275.61741638 C-19.87083438 275.68093304 -17.75526927 275.73845465 -15.63964844 275.79589844 C-14.16704743 275.83893907 -12.69445737 275.88235575 -11.22187805 275.9261322 C-7.35702449 276.04001841 -3.49204385 276.14881109 0.37298584 276.25653076 C4.32133813 276.36747888 8.26954836 276.48326142 12.21777344 276.59863281 C19.95657504 276.82405803 27.69551732 277.04410049 35.43457031 277.26074219 C35.43457031 277.92074219 35.43457031 278.58074219 35.43457031 279.26074219 C36.51464355 279.25550537 37.5947168 279.25026855 38.70751953 279.24487305 C42.70686009 279.2268011 46.70619703 279.21530212 50.70556641 279.20581055 C52.43799445 279.20077536 54.17041823 279.19394686 55.90283203 279.18530273 C58.38998465 279.17320153 60.87708118 279.16750581 63.36425781 279.16308594 C64.1413913 279.15792465 64.91852478 279.15276337 65.71920776 279.14744568 C71.2068269 279.14687048 71.2068269 279.14687048 73.43457031 280.26074219 C75.80580277 280.49104174 78.18198974 280.67194161 80.55957031 280.82324219 C81.84089844 280.90703125 83.12222656 280.99082031 84.44238281 281.07714844 C85.42980469 281.13773437 86.41722656 281.19832031 87.43457031 281.26074219 C87.43457031 282.25074219 87.43457031 283.24074219 87.43457031 284.26074219 C86.70343018 284.28579834 85.97229004 284.31085449 85.21899414 284.33666992 C81.89485614 284.4529686 78.5709779 284.57554147 75.24707031 284.69824219 C74.09658203 284.73755859 72.94609375 284.776875 71.76074219 284.81738281 C70.64892578 284.85927734 69.53710938 284.90117187 68.39160156 284.94433594 C67.37042236 284.98099365 66.34924316 285.01765137 65.29711914 285.05541992 C62.49624055 285.19164846 62.49624055 285.19164846 60.04174805 285.76293945 C56.62091652 286.41609757 53.23320996 286.47399629 49.76269531 286.54199219 C49.03967224 286.56040161 48.31664917 286.57881104 47.57171631 286.59777832 C44.49277936 286.67616851 41.41364433 286.74453381 38.33447266 286.81298828 C36.08126487 286.86455235 33.82825368 286.92182015 31.57519531 286.97949219 C30.52371307 286.99985535 30.52371307 286.99985535 29.45098877 287.02062988 C26.15884514 286.82991591 26.15884514 286.82991591 23.43457031 288.26074219 C20.8409771 288.34925748 18.2741734 288.37600164 15.68066406 288.35839844 C14.90521744 288.35698349 14.12977081 288.35556854 13.33082581 288.35411072 C10.84453537 288.34849564 8.35833371 288.33594065 5.87207031 288.32324219 C4.19043098 288.31822913 2.50879025 288.31366588 0.82714844 288.30957031 C-3.30374535 288.29852132 -7.43457245 288.28124663 -11.56542969 288.26074219 C-11.56542969 288.92074219 -11.56542969 289.58074219 -11.56542969 290.26074219 C-44.47847256 291.44589659 -77.37870549 292.46424714 -110.31542969 292.51074219 C-112.16704208 292.51823486 -112.16704208 292.51823486 -114.05606079 292.52587891 C-138.84585725 292.60893584 -138.84585725 292.60893584 -150.56542969 290.26074219 C-150.56542969 289.60074219 -150.56542969 288.94074219 -150.56542969 288.26074219 C-151.20480469 288.34324219 -151.84417969 288.42574219 -152.50292969 288.51074219 C-156.28199751 288.20224685 -158.99576735 286.8706829 -162.38183594 285.23339844 C-164.43923095 284.31695594 -166.36892053 283.73391309 -168.56542969 283.26074219 C-168.56542969 282.60074219 -168.56542969 281.94074219 -168.56542969 281.26074219 C-169.88542969 281.26074219 -171.20542969 281.26074219 -172.56542969 281.26074219 C-172.56542969 280.60074219 -172.56542969 279.94074219 -172.56542969 279.26074219 C-173.12230469 279.13699219 -173.67917969 279.01324219 -174.25292969 278.88574219 C-176.78657333 278.20097364 -179.14464001 277.26940456 -181.56542969 276.26074219 C-181.56542969 275.60074219 -181.56542969 274.94074219 -181.56542969 274.26074219 C-182.55542969 274.26074219 -183.54542969 274.26074219 -184.56542969 274.26074219 C-184.56542969 273.60074219 -184.56542969 272.94074219 -184.56542969 272.26074219 C-185.74105469 271.79667969 -185.74105469 271.79667969 -186.94042969 271.32324219 C-189.56542969 270.26074219 -189.56542969 270.26074219 -191.56542969 269.26074219 C-191.56542969 268.60074219 -191.56542969 267.94074219 -191.56542969 267.26074219 C-192.22542969 267.26074219 -192.88542969 267.26074219 -193.56542969 267.26074219 C-193.56542969 266.60074219 -193.56542969 265.94074219 -193.56542969 265.26074219 C-194.14292969 264.99261719 -194.72042969 264.72449219 -195.31542969 264.44824219 C-197.62093011 263.2314503 -199.58599161 261.9574034 -201.56542969 260.26074219 C-201.56542969 259.60074219 -201.56542969 258.94074219 -201.56542969 258.26074219 C-202.22542969 258.26074219 -202.88542969 258.26074219 -203.56542969 258.26074219 C-203.56542969 257.60074219 -203.56542969 256.94074219 -203.56542969 256.26074219 C-204.22542969 256.26074219 -204.88542969 256.26074219 -205.56542969 256.26074219 C-206.55542969 253.78574219 -206.55542969 253.78574219 -207.56542969 251.26074219 C-208.22542969 251.26074219 -208.88542969 251.26074219 -209.56542969 251.26074219 C-210.06042969 249.28074219 -210.06042969 249.28074219 -210.56542969 247.26074219 C-211.22542969 247.26074219 -211.88542969 247.26074219 -212.56542969 247.26074219 C-212.56542969 246.27074219 -212.56542969 245.28074219 -212.56542969 244.26074219 C-213.22542969 244.26074219 -213.88542969 244.26074219 -214.56542969 244.26074219 C-215.4065714 242.82779721 -216.23808656 241.38919814 -217.06542969 239.94824219 C-217.52949219 239.14773438 -217.99355469 238.34722656 -218.47167969 237.52246094 C-219.56542969 235.26074219 -219.56542969 235.26074219 -219.56542969 232.26074219 C-220.22542969 232.26074219 -220.88542969 232.26074219 -221.56542969 232.26074219 C-221.56542969 230.94074219 -221.56542969 229.62074219 -221.56542969 228.26074219 C-222.22542969 228.26074219 -222.88542969 228.26074219 -223.56542969 228.26074219 C-223.68660156 227.69226563 -223.80777344 227.12378906 -223.93261719 226.53808594 C-224.10019531 225.7659375 -224.26777344 224.99378906 -224.44042969 224.19824219 C-224.60285156 223.44414062 -224.76527344 222.69003906 -224.93261719 221.91308594 C-225.55156738 219.15832369 -225.55156738 219.15832369 -226.59057617 216.12817383 C-227.66912832 211.84934973 -227.8378118 208.11150925 -227.79589844 203.72949219 C-227.79544022 202.93474487 -227.79498199 202.13999756 -227.79450989 201.32116699 C-227.79150553 199.6504567 -227.78367415 197.97974875 -227.77124023 196.30908203 C-227.75298275 193.76812687 -227.75073096 191.22753741 -227.75097656 188.68652344 C-227.74606007 187.05500991 -227.74023118 185.42349882 -227.73339844 183.79199219 C-227.7317292 182.66513 -227.7317292 182.66513 -227.73002625 181.51550293 C-227.67267736 175.06454525 -227.08925947 169.25483792 -224.56542969 163.26074219 C-224.19671881 161.60154323 -223.85261295 159.93597789 -223.56542969 158.26074219 C-222.90542969 158.26074219 -222.24542969 158.26074219 -221.56542969 158.26074219 C-221.56542969 156.94074219 -221.56542969 155.62074219 -221.56542969 154.26074219 C-220.90542969 154.26074219 -220.24542969 154.26074219 -219.56542969 154.26074219 C-219.56542969 152.94074219 -219.56542969 151.62074219 -219.56542969 150.26074219 C-218.90542969 150.26074219 -218.24542969 150.26074219 -217.56542969 150.26074219 C-217.41074219 148.86855469 -217.41074219 148.86855469 -217.25292969 147.44824219 C-216.5329864 144.11032329 -216.02089531 143.40927461 -213.56542969 141.26074219 C-213.23542969 140.27074219 -212.90542969 139.28074219 -212.56542969 138.26074219 C-211.90542969 138.26074219 -211.24542969 138.26074219 -210.56542969 138.26074219 C-210.56542969 137.60074219 -210.56542969 136.94074219 -210.56542969 136.26074219 C-208.92174828 134.57140297 -207.25114209 132.90814294 -205.56542969 131.26074219 C-204.48261719 129.86855469 -204.48261719 129.86855469 -203.37792969 128.44824219 C-202.48074219 127.36542969 -202.48074219 127.36542969 -201.56542969 126.26074219 C-200.90542969 126.26074219 -200.24542969 126.26074219 -199.56542969 126.26074219 C-199.56542969 125.60074219 -199.56542969 124.94074219 -199.56542969 124.26074219 C-198.90542969 124.26074219 -198.24542969 124.26074219 -197.56542969 124.26074219 C-197.56542969 123.60074219 -197.56542969 122.94074219 -197.56542969 122.26074219 C-196.57542969 122.26074219 -195.58542969 122.26074219 -194.56542969 122.26074219 C-194.56542969 121.60074219 -194.56542969 120.94074219 -194.56542969 120.26074219 C-192.00396399 117.9642557 -191.08575397 117.26074219 -187.56542969 117.26074219 C-187.56542969 116.60074219 -187.56542969 115.94074219 -187.56542969 115.26074219 C-186.90542969 115.26074219 -186.24542969 115.26074219 -185.56542969 115.26074219 C-185.56542969 114.60074219 -185.56542969 113.94074219 -185.56542969 113.26074219 C-182.59542969 112.76574219 -182.59542969 112.76574219 -179.56542969 112.26074219 C-179.56542969 111.60074219 -179.56542969 110.94074219 -179.56542969 110.26074219 C-178.24542969 110.26074219 -176.92542969 110.26074219 -175.56542969 110.26074219 C-175.56542969 109.60074219 -175.56542969 108.94074219 -175.56542969 108.26074219 C-174.57542969 108.26074219 -173.58542969 108.26074219 -172.56542969 108.26074219 C-172.56542969 107.60074219 -172.56542969 106.94074219 -172.56542969 106.26074219 C-163.15540691 102.81655084 -163.15540691 102.81655084 -158.56542969 103.26074219 C-158.56542969 102.60074219 -158.56542969 101.94074219 -158.56542969 101.26074219 C-156.58542969 101.26074219 -154.60542969 101.26074219 -152.56542969 101.26074219 C-152.56542969 100.60074219 -152.56542969 99.94074219 -152.56542969 99.26074219 C-147.61542969 98.76574219 -147.61542969 98.76574219 -142.56542969 98.26074219 C-142.56542969 96.61074219 -142.56542969 94.96074219 -142.56542969 93.26074219 C-141.56542969 90.94824219 -141.56542969 90.94824219 -140.56542969 89.26074219 C-139.90542969 89.26074219 -139.24542969 89.26074219 -138.56542969 89.26074219 C-138.61699219 88.555625 -138.66855469 87.85050781 -138.72167969 87.12402344 C-138.53595244 83.72057158 -137.54050824 81.50903018 -136.06542969 78.44824219 C-135.60136719 77.47242188 -135.13730469 76.49660156 -134.65917969 75.49121094 C-134.29824219 74.75515625 -133.93730469 74.01910156 -133.56542969 73.26074219 C-132.90542969 73.26074219 -132.24542969 73.26074219 -131.56542969 73.26074219 C-131.46101563 72.70902344 -131.35660156 72.15730469 -131.24902344 71.58886719 C-130.41982584 68.76485709 -129.13743319 66.53519303 -127.62792969 64.01074219 C-127.10328125 63.11871094 -126.57863281 62.22667969 -126.03808594 61.30761719 C-125.55210938 60.63214844 -125.06613281 59.95667969 -124.56542969 59.26074219 C-123.90542969 59.26074219 -123.24542969 59.26074219 -122.56542969 59.26074219 C-122.29730469 58.51824219 -122.02917969 57.77574219 -121.75292969 57.01074219 C-120.61266218 54.3701227 -119.47162663 52.40521375 -117.56542969 50.26074219 C-116.90542969 50.26074219 -116.24542969 50.26074219 -115.56542969 50.26074219 C-115.27667969 49.66261719 -114.98792969 49.06449219 -114.69042969 48.44824219 C-113.56542969 46.26074219 -113.56542969 46.26074219 -111.56542969 43.26074219 C-110.90542969 43.26074219 -110.24542969 43.26074219 -109.56542969 43.26074219 C-109.56542969 42.60074219 -109.56542969 41.94074219 -109.56542969 41.26074219 C-108.90542969 41.26074219 -108.24542969 41.26074219 -107.56542969 41.26074219 C-107.56542969 40.60074219 -107.56542969 39.94074219 -107.56542969 39.26074219 C-104.10389123 36.26074219 -104.10389123 36.26074219 -101.56542969 36.26074219 C-101.56542969 35.60074219 -101.56542969 34.94074219 -101.56542969 34.26074219 C-100.90542969 34.26074219 -100.24542969 34.26074219 -99.56542969 34.26074219 C-99.56542969 33.60074219 -99.56542969 32.94074219 -99.56542969 32.26074219 C-98.10449219 30.97167969 -98.10449219 30.97167969 -96.19042969 29.63574219 C-95.56394531 29.18972656 -94.93746094 28.74371094 -94.29199219 28.28417969 C-92.56542969 27.26074219 -92.56542969 27.26074219 -90.56542969 27.26074219 C-90.56542969 26.60074219 -90.56542969 25.94074219 -90.56542969 25.26074219 C-89.57542969 25.26074219 -88.58542969 25.26074219 -87.56542969 25.26074219 C-87.56542969 24.60074219 -87.56542969 23.94074219 -87.56542969 23.26074219 C-85.91542969 22.93074219 -84.26542969 22.60074219 -82.56542969 22.26074219 C-82.56542969 21.60074219 -82.56542969 20.94074219 -82.56542969 20.26074219 C-81.57542969 20.26074219 -80.58542969 20.26074219 -79.56542969 20.26074219 C-79.56542969 19.60074219 -79.56542969 18.94074219 -79.56542969 18.26074219 C-78.57542969 18.26074219 -77.58542969 18.26074219 -76.56542969 18.26074219 C-76.56542969 17.60074219 -76.56542969 16.94074219 -76.56542969 16.26074219 C-73.10042969 15.76574219 -73.10042969 15.76574219 -69.56542969 15.26074219 C-69.56542969 14.60074219 -69.56542969 13.94074219 -69.56542969 13.26074219 C-68.24542969 13.26074219 -66.92542969 13.26074219 -65.56542969 13.26074219 C-65.56542969 12.60074219 -65.56542969 11.94074219 -65.56542969 11.26074219 C-64.24542969 11.26074219 -62.92542969 11.26074219 -61.56542969 11.26074219 C-61.56542969 10.60074219 -61.56542969 9.94074219 -61.56542969 9.26074219 C-60.99695313 9.15117188 -60.42847656 9.04160156 -59.84277344 8.92871094 C-55.9952828 8.1386586 -52.43877144 7.32035566 -48.87792969 5.63574219 C-45.47086007 4.22148688 -43.20872115 3.99415989 -39.56542969 4.26074219 C-39.56542969 3.60074219 -39.56542969 2.94074219 -39.56542969 2.26074219 C-26.36945881 0.24367004 -13.33474887 -0.04954322 0 0 Z " fill="#00B9F2" transform="translate(246.5654296875,109.7392578125)"/>
</svg>
